<svg width="188" height="64" viewBox="0 0 188 64" fill="none" xmlns="http://www.w3.org/2000/svg">
<rect x="2" y="10" width="154" height="52" rx="26" fill="white" stroke="black" stroke-width="4"/>
<path d="M56.4438 46.0605H58.9048V26.0483H56.4438V23.0576L68.0991 23.0918C69.1473 23.0918 70.1328 23.2912 71.0557 23.6899C71.9785 24.0773 72.7817 24.6128 73.4653 25.2964C74.1489 25.9686 74.6844 26.7661 75.0718 27.689C75.4705 28.6118 75.6699 29.603 75.6699 30.6626C75.6699 31.7677 75.3623 32.776 74.7471 33.6875C74.1318 34.599 73.2546 35.3281 72.1152 35.875C72.6735 36.1712 73.1805 36.5187 73.6362 36.9175C74.092 37.3049 74.4793 37.7321 74.7983 38.1992C75.1174 38.6663 75.3623 39.1619 75.5332 39.686C75.7155 40.2101 75.8066 40.7456 75.8066 41.2925C75.8066 42.3748 75.6073 43.3831 75.2085 44.3174C74.8211 45.2516 74.2856 46.0662 73.6021 46.7612C72.9185 47.4562 72.1152 48.0031 71.1924 48.4019C70.2809 48.8006 69.3011 49 68.2529 49H56.4438V46.0605ZM62.2544 37.4814V46.0605H68.2871C68.834 46.0605 69.341 45.9238 69.8081 45.6504C70.2752 45.377 70.6854 45.0238 71.0386 44.5908C71.3918 44.1465 71.6652 43.6452 71.8589 43.0869C72.064 42.5286 72.1665 41.959 72.1665 41.3779C72.1665 40.8766 72.064 40.3924 71.8589 39.9253C71.6538 39.4582 71.3747 39.0423 71.0215 38.6777C70.6797 38.3132 70.2695 38.0226 69.791 37.8062C69.3239 37.5897 68.8226 37.4814 68.2871 37.4814H62.2544ZM62.2544 26.0483V34.5078H68.1333C68.6802 34.5078 69.1872 34.3996 69.6543 34.1831C70.1328 33.9666 70.543 33.6761 70.8848 33.3115C71.238 32.9469 71.5171 32.5254 71.7222 32.0469C71.9272 31.5684 72.0298 31.0728 72.0298 30.5601C72.0298 30.0018 71.9272 29.4549 71.7222 28.9194C71.5171 28.3726 71.238 27.8883 70.8848 27.4668C70.5316 27.0452 70.1157 26.7035 69.6372 26.4414C69.1701 26.1794 68.6688 26.0483 68.1333 26.0483H62.2544ZM89.2222 47.3594C88.55 47.986 87.8037 48.4987 86.9834 48.8975C86.1745 49.2962 85.2516 49.4956 84.2148 49.4956C83.349 49.4956 82.5514 49.3589 81.8223 49.0854C81.1045 48.812 80.4836 48.4417 79.9595 47.9746C79.4354 47.4961 79.0252 46.9435 78.729 46.3169C78.4442 45.6903 78.3018 45.0238 78.3018 44.3174C78.3018 43.5654 78.41 42.8989 78.6265 42.3179C78.8543 41.7368 79.1506 41.2355 79.5151 40.814C79.8911 40.381 80.3241 40.0221 80.814 39.7373C81.3153 39.4411 81.8337 39.2075 82.3691 39.0366C82.916 38.8543 83.4686 38.729 84.0269 38.6606C84.5965 38.5809 85.1377 38.541 85.6504 38.541C86.4707 38.541 87.16 38.5695 87.7183 38.6265C88.2765 38.672 88.7835 38.7404 89.2393 38.8315L89.2563 37.3789C89.2563 36.7523 89.1652 36.2111 88.9829 35.7554C88.8006 35.2882 88.5443 34.9066 88.2139 34.6104C87.8835 34.3027 87.4847 34.0749 87.0176 33.9268C86.5618 33.7786 86.0492 33.7046 85.4795 33.7046C84.944 33.7046 84.4313 33.7445 83.9414 33.8242C83.4515 33.8926 82.9901 33.9894 82.5571 34.1147C82.1356 34.2287 81.7425 34.3654 81.3779 34.5249C81.0247 34.673 80.7228 34.8325 80.4722 35.0034L79.4297 32.7988C79.8512 32.5254 80.3127 32.2747 80.814 32.0469C81.3153 31.8076 81.8394 31.6082 82.3862 31.4487C82.9445 31.2778 83.5085 31.1468 84.0781 31.0557C84.6592 30.9531 85.2288 30.9019 85.7871 30.9019C86.8125 30.9019 87.7354 31.0272 88.5557 31.2778C89.376 31.5171 90.071 31.8931 90.6406 32.4058C91.2103 32.9185 91.6489 33.5736 91.9565 34.3711C92.2642 35.1572 92.418 36.1029 92.418 37.208L92.4009 46.0605H94.3662V49H89.2222V47.3594ZM84.9155 46.8296C85.3371 46.8296 85.7586 46.7783 86.1802 46.6758C86.6017 46.5732 87.0005 46.4365 87.3765 46.2656C87.7524 46.0833 88.0999 45.8783 88.4189 45.6504C88.738 45.4111 89.0057 45.1662 89.2222 44.9155L89.2393 40.9165H85.5479C84.9326 40.9165 84.3687 40.9849 83.856 41.1216C83.3547 41.2583 82.916 41.4577 82.54 41.7197C82.1755 41.9818 81.8906 42.3065 81.6855 42.6938C81.4805 43.0812 81.3779 43.5256 81.3779 44.0269C81.3779 44.494 81.4634 44.9041 81.6343 45.2573C81.8052 45.5991 82.0444 45.8896 82.3521 46.1289C82.6711 46.3568 83.047 46.5334 83.48 46.6587C83.9129 46.7726 84.3914 46.8296 84.9155 46.8296ZM110.738 36.0117C110.26 35.1572 109.65 34.5306 108.91 34.1318C108.181 33.7331 107.332 33.5337 106.363 33.5337C105.623 33.5337 104.928 33.6875 104.278 33.9951C103.629 34.3027 103.059 34.7414 102.569 35.311C102.091 35.8807 101.709 36.5757 101.424 37.396C101.151 38.2049 101.014 39.1107 101.014 40.1133C101.014 41.1045 101.151 41.9989 101.424 42.7964C101.709 43.5939 102.097 44.2775 102.586 44.8472C103.076 45.4054 103.64 45.8384 104.278 46.146C104.928 46.4422 105.623 46.5903 106.363 46.5903C107.457 46.5903 108.408 46.3283 109.217 45.8042C110.026 45.2687 110.67 44.4883 111.148 43.4629L113.78 44.7617C113.438 45.4909 113.017 46.146 112.516 46.7271C112.014 47.3081 111.445 47.8037 110.807 48.2139C110.18 48.624 109.485 48.9373 108.722 49.1538C107.97 49.3817 107.172 49.4956 106.329 49.4956C105.099 49.4956 103.959 49.2677 102.911 48.812C101.874 48.3449 100.974 47.6955 100.211 46.8638C99.459 46.0321 98.8722 45.0409 98.4507 43.8901C98.0291 42.7394 97.8184 41.4805 97.8184 40.1133C97.8184 38.7461 98.0405 37.4871 98.4849 36.3364C98.9292 35.1857 99.5387 34.2002 100.313 33.3799C101.088 32.5482 101.994 31.8988 103.031 31.4316C104.068 30.9645 105.178 30.731 106.363 30.731C107.48 30.731 108.534 30.9246 109.525 31.312C110.528 31.6994 111.405 32.2861 112.157 33.0723H113.951V36.0117H110.738ZM116.925 22.4082H123.163V25.3477H123.128V38.5752H126.205L130.409 34.2344H129.349V31.2949H136.065V34.2344H133.827L128.443 39.7886L134.322 46.0605H136.458V49H132.716L125.47 41.0874H123.128V46.0605H124.598V49H117.027V46.0605H119.933V25.3477H116.925V22.4082Z" fill="black"/>
<path d="M9.00769 35.18C8.23929 35.9735 8.25964 37.2396 9.05313 38.008L21.9839 50.5298C22.7774 51.2982 24.0436 51.2779 24.812 50.4844C25.5804 49.6909 25.56 48.4247 24.7665 47.6563L13.2725 36.5258L24.403 25.0318C25.1714 24.2383 25.1511 22.9722 24.3576 22.2038C23.5641 21.4354 22.2979 21.4557 21.5295 22.2492L9.00769 35.18ZM45.9679 34.0003L10.4123 34.5715L10.4766 38.571L46.0321 37.9997L45.9679 34.0003Z" fill="black"/>
</svg>
